<?xml version="1.0" encoding="UTF-8" standalone="no"?>
<!-- Created with Inkscape (http://www.inkscape.org/) -->

<svg
   width="50.799999mm"
   height="128.49899mm"
   viewBox="0 0 50.799999 128.49899"
   version="1.1"
   id="svg1"
   inkscape:version="1.3 (0e150ed6c4, 2023-07-21)"
   sodipodi:docname="JackAudioTemplate.svg"
   xml:space="preserve"
   xmlns:inkscape="http://www.inkscape.org/namespaces/inkscape"
   xmlns:sodipodi="http://sodipodi.sourceforge.net/DTD/sodipodi-0.dtd"
   xmlns:xlink="http://www.w3.org/1999/xlink"
   xmlns="http://www.w3.org/2000/svg"
   xmlns:svg="http://www.w3.org/2000/svg"><sodipodi:namedview
     id="namedview1"
     pagecolor="#ffffff"
     bordercolor="#000000"
     borderopacity="0.25"
     inkscape:showpageshadow="2"
     inkscape:pageopacity="0.0"
     inkscape:pagecheckerboard="0"
     inkscape:deskcolor="#d1d1d1"
     inkscape:document-units="mm"
     inkscape:zoom="2"
     inkscape:cx="159.5"
     inkscape:cy="243"
     inkscape:window-width="2559"
     inkscape:window-height="1372"
     inkscape:window-x="0"
     inkscape:window-y="0"
     inkscape:window-maximized="1"
     inkscape:current-layer="layer1"
     showguides="false" /><defs
     id="defs1"><rect
       x="-179.31208"
       y="444.1139"
       width="166.47065"
       height="186.75271"
       id="rect4" /><rect
       x="56.975097"
       y="80.308731"
       width="273.09289"
       height="99.784104"
       id="rect37485" /><linearGradient
       id="linearGradient37484"
       inkscape:collect="always"><stop
         style="stop-color:#1696ff;stop-opacity:0.77015531;"
         offset="0"
         id="stop37484" /><stop
         style="stop-color:#0084ed;stop-opacity:0.51236063;"
         offset="1"
         id="stop37485" /></linearGradient><linearGradient
       id="linearGradient37482"
       inkscape:collect="always"><stop
         style="stop-color:#404245;stop-opacity:1;"
         offset="0"
         id="stop37482" /><stop
         style="stop-color:#2e2f30;stop-opacity:1;"
         offset="1"
         id="stop37483" /></linearGradient><linearGradient
       id="linearGradient37479"
       inkscape:collect="always"><stop
         style="stop-color:#252626;stop-opacity:1;"
         offset="0"
         id="stop37479" /><stop
         style="stop-color:#000000;stop-opacity:1;"
         offset="1"
         id="stop37480" /></linearGradient><linearGradient
       inkscape:collect="always"
       xlink:href="#linearGradient37479"
       id="linearGradient37480"
       x1="21.20294"
       y1="0.57470703"
       x2="21.20294"
       y2="128.57607"
       gradientUnits="userSpaceOnUse" /><linearGradient
       inkscape:collect="always"
       xlink:href="#linearGradient37482"
       id="linearGradient37483"
       x1="24.791456"
       y1="1.052719"
       x2="24.791456"
       y2="128.19475"
       gradientUnits="userSpaceOnUse" /><linearGradient
       inkscape:collect="always"
       xlink:href="#linearGradient37484"
       id="linearGradient37485"
       x1="34.743561"
       y1="64.293232"
       x2="42.823645"
       y2="64.293232"
       gradientUnits="userSpaceOnUse"
       gradientTransform="matrix(0.67712214,0,0,0.99987514,16.991836,-0.01185592)" /><rect
       x="56.975098"
       y="80.308731"
       width="273.0929"
       height="99.784103"
       id="rect37485-9" /><linearGradient
       inkscape:collect="always"
       xlink:href="#linearGradient37482"
       id="linearGradient5"
       gradientUnits="userSpaceOnUse"
       x1="24.791456"
       y1="1.052719"
       x2="24.791456"
       y2="128.19475"
       gradientTransform="translate(73.743672,0.88899034)" /><linearGradient
       inkscape:collect="always"
       xlink:href="#linearGradient37479"
       id="linearGradient6"
       gradientUnits="userSpaceOnUse"
       x1="21.20294"
       y1="0.57470703"
       x2="21.20294"
       y2="128.57607"
       gradientTransform="translate(73.743672,0.88899034)" /><linearGradient
       inkscape:collect="always"
       xlink:href="#linearGradient37484"
       id="linearGradient7"
       gradientUnits="userSpaceOnUse"
       gradientTransform="matrix(0.67712214,0,0,0.99987514,90.735508,0.87713434)"
       x1="34.743561"
       y1="64.293232"
       x2="42.823645"
       y2="64.293232" /><rect
       x="56.975098"
       y="80.308731"
       width="273.0929"
       height="99.784103"
       id="rect37485-9-7" /><linearGradient
       inkscape:collect="always"
       xlink:href="#linearGradient37482"
       id="linearGradient8"
       gradientUnits="userSpaceOnUse"
       gradientTransform="translate(-61.321147,0.20064815)"
       x1="24.791456"
       y1="1.052719"
       x2="24.791456"
       y2="128.19475" /><linearGradient
       inkscape:collect="always"
       xlink:href="#linearGradient37479"
       id="linearGradient9"
       gradientUnits="userSpaceOnUse"
       gradientTransform="translate(-61.321147,0.20064815)"
       x1="21.20294"
       y1="0.57470703"
       x2="21.20294"
       y2="128.57607" /><linearGradient
       inkscape:collect="always"
       xlink:href="#linearGradient37484"
       id="linearGradient10"
       gradientUnits="userSpaceOnUse"
       gradientTransform="matrix(0.67712214,0,0,0.99987514,-44.329317,0.18879215)"
       x1="34.743561"
       y1="64.293232"
       x2="42.823645"
       y2="64.293232" /><rect
       x="56.975098"
       y="80.308731"
       width="273.0929"
       height="99.784103"
       id="rect37485-5" /></defs><g
     inkscape:label="Layer 1"
     inkscape:groupmode="layer"
     id="layer1"><rect
       style="fill:url(#linearGradient37483);stroke-width:3.22552"
       id="rect37480"
       width="50.643139"
       height="128.36586"
       x="0.12973207"
       y="0.079228953" /><path
       inkscape:connector-curvature="0"
       id="path40444-2"
       d="M 50.84443,0.04768113 H 0.04442751 V 128.54715 H 50.84443 Z M 50.65839,128.35974 H 0.23183751 V 0.23371772 H 50.65839 Z m 0,0"
       style="display:inline;fill:url(#linearGradient37480);fill-opacity:1;fill-rule:nonzero;stroke:none;stroke-width:0.352778" /><path
       sodipodi:nodetypes="sssssssss"
       style="display:inline;fill:#000000;fill-opacity:0.28152442;fill-rule:nonzero;stroke:none;stroke-width:0.352778"
       d="m 12.769629,61.187503 c 0,-0.54984 -0.449241,-0.99908 -0.999081,-0.99908 H 4.0159375 c -0.54984,0 -0.9990801,0.44924 -0.9990801,0.99908 v 55.451957 c 0,0.54984 0.4492401,0.99909 0.9990801,0.99909 h 7.7546105 c 0.54984,0 0.999081,-0.44925 0.999081,-0.99909 z"
       id="path44508-9"
       inkscape:connector-curvature="0" /><rect
       style="fill:#000000;stroke-width:0.264583"
       id="rect37482"
       width="0"
       height="0"
       x="5.5593357"
       y="4.5892992" /><rect
       style="fill:#858585;fill-opacity:0.24305469;stroke-width:0.264717"
       id="rect37483"
       width="50.427631"
       height="0.18739025"
       x="0.23235627"
       y="0.23429216" /><rect
       style="fill:url(#linearGradient37485);stroke-width:0.622709"
       id="rect37484"
       width="5.4712029"
       height="128.11063"
       x="40.517464"
       y="0.21803874"
       ry="0" /><text
       xml:space="preserve"
       transform="matrix(0.26458333,0,0,0.26458333,-5.235294,-20.975376)"
       id="text37485"
       style="font-style:normal;font-variant:normal;font-weight:normal;font-stretch:normal;font-size:14.6667px;font-family:Mashq;-inkscape-font-specification:Mashq;white-space:pre;shape-inside:url(#rect37485);shape-padding:0.634033;display:inline;fill:#aaaaaa;fill-opacity:0.84185;stroke-width:0.245669;stroke-dasharray:none"><tspan
         x="57.609375"
         y="94.700844"
         id="tspan6"><tspan
           style="font-weight:600;font-family:Pinnacle;-inkscape-font-specification:'Pinnacle Semi-Bold';stroke:#ededed;stroke-opacity:0.95974"
           id="tspan5">JackAndRack</tspan></tspan></text><path
       style="font-size:4.23333px;font-family:Pinnacle;-inkscape-font-specification:Pinnacle;white-space:pre;inline-size:22.7942;fill:#dddddd;fill-opacity:0.800499;stroke:#ededed;stroke-width:0.065;stroke-opacity:0.951926"
       d="M 7.4819174,47.917213 H 9.171016 c 0.4529662,0 0.8254993,-0.368299 0.8254993,-0.825499 0,-0.457199 -0.3682997,-0.825499 -0.8254993,-0.825499 H 8.2481501 c -0.2709331,0 -0.486833,-0.2159 -0.486833,-0.486833 0,-0.270933 0.2158999,-0.486833 0.486833,-0.486833 h 1.579032 v -0.338666 h -1.579032 c -0.4571997,0 -0.8254993,0.372533 -0.8254993,0.825499 0,0.4572 0.3682996,0.825499 0.8254993,0.825499 H 9.171016 c 0.2709331,0 0.4868329,0.2159 0.4868329,0.486833 0,0.270933 -0.2158998,0.486833 -0.4868329,0.486833 H 7.4819174 Z M 12.16398,45.715882 v -0.338666 h -1.227666 v -0.423333 h -0.338666 v 2.158998 c 0,0.444499 0.364066,0.804332 0.804333,0.804332 h 0.761999 v -0.338666 h -0.761999 c -0.258233,0 -0.465667,-0.207433 -0.465667,-0.465666 v -1.396999 z m 0.677336,2.201331 h 0.338666 V 44.53055 h -0.338666 z m 1.722965,0 h 0.465666 l -1.253065,-1.244599 c -0.04657,-0.04233 -0.06773,-0.0762 -0.06773,-0.105833 0,-0.03387 0.0254,-0.06773 0.05927,-0.110066 l 0.944032,-1.079499 h -0.436033 l -0.800099,0.922865 c -0.08043,0.0889 -0.118533,0.182034 -0.118533,0.270934 0,0.09737 0.04233,0.190499 0.1397,0.279399 z m 3.560228,-2.624664 v -0.338666 h -2.163231 c -0.220133,0 -0.338667,0.118533 -0.338667,0.338666 v 2.285998 c 0,0.220133 0.118534,0.338666 0.338667,0.338666 h 2.163231 v -0.338666 h -2.163231 v -0.973666 h 1.494365 v -0.338666 h -1.494365 v -0.973666 z m 1.80763,2.662764 c 0.6223,0 1.130299,-0.507999 1.130299,-1.134532 v -1.443565 h -0.338666 v 1.443565 c 0,0.440266 -0.3556,0.795866 -0.791633,0.795866 -0.436033,0 -0.791632,-0.3556 -0.791632,-0.795866 V 45.377216 H 18.80184 v 1.443565 c 0,0.626533 0.508,1.134532 1.130299,1.134532 z m 1.807633,-0.0381 h 0.338667 v -1.756831 c 0,-0.08043 0.0127,-0.1143 0.04233,-0.148167 0.186266,-0.220133 0.452966,-0.3429 0.736599,-0.3429 0.182034,0 0.351367,0.0508 0.4953,0.1397 l 0.1651,-0.296333 c -0.194733,-0.1143 -0.4191,-0.182033 -0.6604,-0.182033 -0.402166,0 -0.766232,0.186266 -1.007532,0.474133 -0.08467,0.1016 -0.110067,0.207433 -0.110067,0.3429 z m 3.420529,0.0381 c 0.728133,0 1.316566,-0.588432 1.316566,-1.312332 0,-0.723899 -0.592666,-1.312332 -1.316566,-1.312332 -0.723899,0 -1.312332,0.588433 -1.312332,1.312332 0,0.7239 0.588433,1.312332 1.312332,1.312332 z m 0,-0.338666 c -0.537633,0 -0.973665,-0.436033 -0.973665,-0.973666 0,-0.537633 0.436032,-0.973666 0.973665,-0.973666 0.537633,0 0.9779,0.436033 0.9779,0.973666 0,0.537633 -0.436033,0.973666 -0.9779,0.973666 z"
       id="text1"
       transform="rotate(-90,63.589746,66.590665)"
       aria-label="StkEuro" /><path
       style="font-size:2.11667px;font-family:Pinnacle;-inkscape-font-specification:Pinnacle;fill:#f2f2f2;fill-opacity:0.59657133;stroke:#111111;stroke-width:0.065;stroke-opacity:0.356716"
       d="m 6.1255692,116.05109 c 0.436034,0 0.7874012,-0.3556 0.7874012,-0.79376 0,-0.43815 -0.3513672,-0.79375 -0.7874012,-0.79375 -0.4339173,0 -0.7852845,0.3556 -0.7852845,0.79375 0,0.43816 0.3513672,0.79376 0.7852845,0.79376 z m 0,-0.16934 c -0.3429005,0 -0.6180676,-0.2794 -0.6180676,-0.62442 0,-0.34501 0.2751671,-0.62441 0.6180676,-0.62441 0.3450172,0 0.6201843,0.2794 0.6201843,0.62441 0,0.34502 -0.2751671,0.62442 -0.6201843,0.62442 z m 1.7039211,0.16934 c 0.3407838,0 0.6180676,-0.27729 0.6180676,-0.61807 V 114.5165 H 8.2782243 v 0.91652 c 0,0.24765 -0.2010836,0.44873 -0.448734,0.44873 -0.2497671,0 -0.4508507,-0.20108 -0.4508507,-0.44873 V 114.5165 H 7.209306 v 0.91652 c 0,0.34078 0.2772838,0.61807 0.6201843,0.61807 z M 10.081629,114.5165 H 8.7692935 v 0.1651 h 0.5715009 v 1.31657 H 9.510128 v -1.31657 h 0.571501 z"
       id="text3"
       aria-label="OUT" /><text
       xml:space="preserve"
       transform="scale(0.26458333)"
       id="text4"
       style="font-style:normal;font-variant:normal;font-weight:600;font-stretch:normal;font-size:8px;font-family:Pinnacle;-inkscape-font-specification:'Pinnacle Semi-Bold';white-space:pre;shape-inside:url(#rect4);display:inline;fill:#090909;fill-opacity:0.59895;stroke:#050505;stroke-width:0.245669;stroke-dasharray:none;stroke-opacity:0.761345" /><rect
       style="fill:url(#linearGradient5);stroke-width:3.22552"
       id="rect37480-0"
       width="50.643139"
       height="128.36586"
       x="73.873405"
       y="0.96821946" /><path
       sodipodi:nodetypes="sssssssss"
       style="display:inline;fill:#000000;fill-opacity:0.28282577;fill-rule:nonzero;stroke:none;stroke-width:0.49002"
       d="m 86.524156,11.684017 c 0,-1.041262 -0.457698,-1.8920123 -1.017889,-1.8920123 h -7.900606 c -0.560192,0 -1.01789,0.8507503 -1.01789,1.8920123 V 116.69618 c 0,1.04124 0.457698,1.89201 1.01789,1.89201 h 7.900606 c 0.560191,0 1.017889,-0.85077 1.017889,-1.89201 z"
       id="path44508"
       inkscape:connector-curvature="0" /><path
       inkscape:connector-curvature="0"
       id="path40444-2-2"
       d="M 124.58811,0.93667134 H 73.7881 V 129.43614 h 50.80001 z M 124.40207,129.24873 H 73.97551 V 1.1227083 h 50.42656 z m 0,0"
       style="display:inline;fill:url(#linearGradient6);fill-opacity:1;fill-rule:nonzero;stroke:none;stroke-width:0.352778" /><rect
       style="fill:#858585;fill-opacity:0.243055;stroke-width:0.264717"
       id="rect37483-6"
       width="50.427631"
       height="0.18739025"
       x="73.976028"
       y="1.1232822" /><rect
       style="fill:url(#linearGradient7);stroke-width:0.622709"
       id="rect37484-1"
       width="5.4712029"
       height="128.11063"
       x="114.26114"
       y="1.1070287"
       ry="0" /><text
       xml:space="preserve"
       transform="matrix(0.26458333,0,0,0.26458333,73.329449,-20.086386)"
       id="text37485-3"
       style="font-style:normal;font-variant:normal;font-weight:normal;font-stretch:normal;font-size:14.6667px;font-family:Mashq;-inkscape-font-specification:Mashq;white-space:pre;shape-inside:url(#rect37485-9);shape-padding:0.634033;display:inline;fill:#aaaaaa;fill-opacity:0.84185;stroke-width:0.245669;stroke-dasharray:none"><tspan
         x="57.609375"
         y="94.700844"
         id="tspan8"><tspan
           style="font-weight:600;font-family:Pinnacle;-inkscape-font-specification:'Pinnacle Semi-Bold';stroke:#ededed;stroke-opacity:0.95974"
           id="tspan7">JackRack</tspan></tspan></text><path
       style="font-size:4.23333px;font-family:Pinnacle;-inkscape-font-specification:Pinnacle;white-space:pre;inline-size:22.7942;fill:#dddddd;fill-opacity:0.800499;stroke:#ededed;stroke-width:0.065;stroke-opacity:0.951926"
       d="m 118.65997,123.58748 v -1.6891 c 0,-0.45296 -0.3683,-0.8255 -0.8255,-0.8255 -0.4572,0 -0.8255,0.3683 -0.8255,0.8255 v 0.92287 c 0,0.27093 -0.2159,0.48683 -0.48684,0.48683 -0.27093,0 -0.48683,-0.2159 -0.48683,-0.48683 v -1.57903 h -0.33867 v 1.57903 c 0,0.4572 0.37254,0.8255 0.8255,0.8255 0.4572,0 0.8255,-0.3683 0.8255,-0.8255 v -0.92287 c 0,-0.27093 0.2159,-0.48683 0.48684,-0.48683 0.27093,0 0.48683,0.2159 0.48683,0.48683 v 1.6891 z m -2.20134,-4.68206 h -0.33866 v 1.22766 h -0.42334 v 0.33867 h 2.159 c 0.4445,0 0.80434,-0.36407 0.80434,-0.80433 v -0.762 h -0.33867 v 0.762 c 0,0.25823 -0.20743,0.46566 -0.46567,0.46566 h -1.397 z m 2.20134,-0.67734 v -0.33866 h -3.38667 v 0.33866 z m 0,-1.72296 v -0.46567 l -1.2446,1.25307 c -0.0423,0.0466 -0.0762,0.0677 -0.10584,0.0677 -0.0339,0 -0.0677,-0.0254 -0.11006,-0.0593 l -1.0795,-0.94404 v 0.43604 l 0.92286,0.8001 c 0.0889,0.0804 0.18204,0.11853 0.27094,0.11853 0.0974,0 0.1905,-0.0423 0.2794,-0.1397 z m -2.62467,-3.56023 h -0.33867 v 2.16323 c 0,0.22013 0.11854,0.33867 0.33867,0.33867 h 2.286 c 0.22013,0 0.33867,-0.11854 0.33867,-0.33867 v -2.16323 h -0.33867 v 2.16323 h -0.97367 v -1.49436 h -0.33866 v 1.49436 h -0.97367 z m 2.66277,-1.80763 c 0,-0.6223 -0.508,-1.1303 -1.13454,-1.1303 h -1.44356 v 0.33867 h 1.44356 c 0.44027,0 0.79587,0.3556 0.79587,0.79163 0,0.43603 -0.3556,0.79163 -0.79587,0.79163 h -1.44356 v 0.33867 h 1.44356 c 0.62654,0 1.13453,-0.508 1.13454,-1.1303 z m -0.0381,-1.80763 v -0.33867 h -1.75684 c -0.0804,0 -0.1143,-0.0127 -0.14816,-0.0423 -0.22014,-0.18627 -0.3429,-0.45297 -0.3429,-0.7366 0,-0.18203 0.0508,-0.35137 0.1397,-0.4953 l -0.29634,-0.1651 c -0.1143,0.19473 -0.18203,0.4191 -0.18203,0.6604 0,0.40217 0.18627,0.76623 0.47413,1.00753 0.1016,0.0847 0.20744,0.11007 0.3429,0.11007 z m 0.0381,-3.42053 c 0,-0.72814 -0.58844,-1.31657 -1.31234,-1.31657 -0.7239,0 -1.31233,0.59267 -1.31233,1.31657 0,0.7239 0.58843,1.31233 1.31233,1.31233 0.7239,0 1.31234,-0.58843 1.31234,-1.31233 z m -0.33867,0 c 0,0.53763 -0.43603,0.97366 -0.97367,0.97366 -0.53763,0 -0.97366,-0.43603 -0.97366,-0.97366 0,-0.53764 0.43603,-0.9779 0.97366,-0.9779 0.53764,0 0.97367,0.43603 0.97367,0.9779 z"
       id="text1-2"
       aria-label="StkEuro" /><path
       style="font-size:2.11667px;font-family:Pinnacle;-inkscape-font-specification:Pinnacle;fill:#f2f2f2;fill-opacity:0.602337;stroke:#111111;stroke-width:0.065;stroke-opacity:0.36880532"
       d="m 79.869241,116.94008 c 0.436034,0 0.787401,-0.3556 0.787401,-0.79376 0,-0.43815 -0.351367,-0.79375 -0.787401,-0.79375 -0.433917,0 -0.785284,0.3556 -0.785284,0.79375 0,0.43816 0.351367,0.79376 0.785284,0.79376 z m 0,-0.16934 c -0.3429,0 -0.618067,-0.2794 -0.618067,-0.62442 0,-0.34501 0.275167,-0.62441 0.618067,-0.62441 0.345017,0 0.620185,0.2794 0.620185,0.62441 0,0.34502 -0.275168,0.62442 -0.620185,0.62442 z m 1.703921,0.16934 c 0.340784,0 0.618068,-0.27729 0.618068,-0.61807 v -0.91652 h -0.169334 v 0.91652 c 0,0.24765 -0.201083,0.44873 -0.448734,0.44873 -0.249767,0 -0.45085,-0.20108 -0.45085,-0.44873 v -0.91652 h -0.169334 v 0.91652 c 0,0.34078 0.277284,0.61807 0.620184,0.61807 z m 2.252139,-1.53459 h -1.312336 v 0.1651 h 0.571501 v 1.31657 H 83.2538 v -1.31657 h 0.571501 z"
       id="text3-1"
       aria-label="OUT" /><rect
       style="fill:url(#linearGradient8);stroke-width:3.22552"
       id="rect37480-0-8"
       width="50.643139"
       height="128.36586"
       x="-61.191422"
       y="0.27988109" /><text
       xml:space="preserve"
       transform="matrix(0.26458333,0,0,0.26458333,-62.03224,-21.125563)"
       id="text37485-9"
       style="font-style:normal;font-variant:normal;font-weight:normal;font-stretch:normal;font-size:14.6667px;font-family:Mashq;-inkscape-font-specification:Mashq;white-space:pre;shape-inside:url(#rect37485-5);shape-padding:0.634033;display:inline;fill:#aaaaaa;fill-opacity:0.84185;stroke-width:0.245669;stroke-dasharray:none"><tspan
         x="57.609375"
         y="94.700844"
         id="tspan10"><tspan
           style="font-weight:600;font-family:Pinnacle;-inkscape-font-specification:'Pinnacle Semi-Bold';stroke:#ededed;stroke-opacity:0.95974"
           id="tspan9">RackJack</tspan></tspan></text><path
       inkscape:connector-curvature="0"
       id="path40444-2-2-7"
       d="m -10.476707,0.24832915 h -50.80001 V 128.7478 h 50.80001 z M -10.662747,128.56039 h -50.42656 V 0.43436615 h 50.42656 z m 0,0"
       style="display:inline;fill:url(#linearGradient9);fill-opacity:1;fill-rule:nonzero;stroke:none;stroke-width:0.352778" /><rect
       style="fill:#858585;fill-opacity:0.243055;stroke-width:0.264717"
       id="rect37483-6-4"
       width="50.427631"
       height="0.18739025"
       x="-61.088791"
       y="0.4349409" /><rect
       style="fill:url(#linearGradient10);stroke-width:0.622709"
       id="rect37484-1-8"
       width="5.4712029"
       height="128.11063"
       x="-20.80368"
       y="0.41869029"
       ry="0" /><path
       style="font-size:4.23333px;font-family:Pinnacle;-inkscape-font-specification:Pinnacle;white-space:pre;inline-size:22.7942;fill:#dddddd;fill-opacity:0.800499;stroke:#ededed;stroke-width:0.065;stroke-opacity:0.951926"
       d="m -16.404847,122.89914 v -1.6891 c 0,-0.45296 -0.3683,-0.8255 -0.8255,-0.8255 -0.4572,0 -0.8255,0.3683 -0.8255,0.8255 v 0.92287 c 0,0.27093 -0.2159,0.48683 -0.48684,0.48683 -0.27093,0 -0.48683,-0.2159 -0.48683,-0.48683 v -1.57903 h -0.33867 v 1.57903 c 0,0.4572 0.37254,0.8255 0.8255,0.8255 0.4572,0 0.8255,-0.3683 0.8255,-0.8255 v -0.92287 c 0,-0.27093 0.2159,-0.48683 0.48684,-0.48683 0.27093,0 0.48683,0.2159 0.48683,0.48683 v 1.6891 z m -2.20134,-4.68206 h -0.33866 v 1.22766 h -0.42334 v 0.33867 h 2.159 c 0.4445,0 0.80434,-0.36407 0.80434,-0.80433 v -0.762 h -0.33867 v 0.762 c 0,0.25823 -0.20743,0.46566 -0.46567,0.46566 h -1.397 z m 2.20134,-0.67734 v -0.33866 h -3.38667 v 0.33866 z m 0,-1.72296 v -0.46567 l -1.2446,1.25307 c -0.0423,0.0466 -0.0762,0.0677 -0.10584,0.0677 -0.0339,0 -0.0677,-0.0254 -0.11006,-0.0593 l -1.0795,-0.94404 v 0.43604 l 0.92286,0.8001 c 0.0889,0.0804 0.18204,0.11853 0.27094,0.11853 0.0974,0 0.1905,-0.0423 0.2794,-0.1397 z m -2.62467,-3.56023 h -0.33867 v 2.16323 c 0,0.22013 0.11854,0.33867 0.33867,0.33867 h 2.286 c 0.22013,0 0.33867,-0.11854 0.33867,-0.33867 v -2.16323 h -0.33867 v 2.16323 h -0.97367 v -1.49436 h -0.33866 v 1.49436 h -0.97367 z m 2.66277,-1.80763 c 0,-0.6223 -0.508,-1.1303 -1.13454,-1.1303 h -1.44356 v 0.33867 h 1.44356 c 0.44027,0 0.79587,0.3556 0.79587,0.79163 0,0.43603 -0.3556,0.79163 -0.79587,0.79163 h -1.44356 v 0.33867 h 1.44356 c 0.62654,0 1.13453,-0.508 1.13454,-1.1303 z m -0.0381,-1.80763 v -0.33867 h -1.75684 c -0.0804,0 -0.1143,-0.0127 -0.14816,-0.0423 -0.22014,-0.18627 -0.3429,-0.45297 -0.3429,-0.7366 0,-0.18203 0.0508,-0.35137 0.1397,-0.4953 l -0.29634,-0.1651 c -0.1143,0.19473 -0.18203,0.4191 -0.18203,0.6604 0,0.40217 0.18627,0.76623 0.47413,1.00753 0.1016,0.0847 0.20744,0.11007 0.3429,0.11007 z m 0.0381,-3.42053 c 0,-0.72814 -0.58844,-1.31657 -1.31234,-1.31657 -0.7239,0 -1.31233,0.59267 -1.31233,1.31657 0,0.7239 0.58843,1.31233 1.31233,1.31233 0.7239,0 1.31234,-0.58843 1.31234,-1.31233 z m -0.33867,0 c 0,0.53763 -0.43603,0.97366 -0.97367,0.97366 -0.53763,0 -0.97366,-0.43603 -0.97366,-0.97366 0,-0.53764 0.43603,-0.9779 0.97366,-0.9779 0.53764,0 0.97367,0.43603 0.97367,0.9779 z"
       id="text1-2-9"
       aria-label="StkEuro" /></g></svg>
