<?xml version="1.0" encoding="UTF-8" standalone="no"?>
<!-- Created with Inkscape (http://www.inkscape.org/) -->

<svg
   width="50.799999mm"
   height="128.49899mm"
   viewBox="0 0 50.799999 128.49899"
   version="1.1"
   id="svg1"
   inkscape:version="1.3 (0e150ed6c4, 2023-07-21)"
   sodipodi:docname="JackAudioB-8in.svg"
   xml:space="preserve"
   xmlns:inkscape="http://www.inkscape.org/namespaces/inkscape"
   xmlns:sodipodi="http://sodipodi.sourceforge.net/DTD/sodipodi-0.dtd"
   xmlns:xlink="http://www.w3.org/1999/xlink"
   xmlns="http://www.w3.org/2000/svg"
   xmlns:svg="http://www.w3.org/2000/svg"><sodipodi:namedview
     id="namedview1"
     pagecolor="#ffffff"
     bordercolor="#000000"
     borderopacity="0.25"
     inkscape:showpageshadow="2"
     inkscape:pageopacity="0.0"
     inkscape:pagecheckerboard="0"
     inkscape:deskcolor="#d1d1d1"
     inkscape:document-units="mm"
     inkscape:zoom="32"
     inkscape:cx="25.84375"
     inkscape:cy="11"
     inkscape:window-width="2559"
     inkscape:window-height="1372"
     inkscape:window-x="0"
     inkscape:window-y="0"
     inkscape:window-maximized="1"
     inkscape:current-layer="layer1"
     showguides="false" /><defs
     id="defs1"><rect
       x="-179.31208"
       y="444.1139"
       width="166.47065"
       height="186.75271"
       id="rect4" /><rect
       x="56.975097"
       y="80.308731"
       width="273.09289"
       height="99.784104"
       id="rect37485" /><linearGradient
       id="linearGradient37484"
       inkscape:collect="always"><stop
         style="stop-color:#1696ff;stop-opacity:0.77015531;"
         offset="0"
         id="stop37484" /><stop
         style="stop-color:#0084ed;stop-opacity:0.51236063;"
         offset="1"
         id="stop37485" /></linearGradient><linearGradient
       id="linearGradient37482"
       inkscape:collect="always"><stop
         style="stop-color:#404245;stop-opacity:1;"
         offset="0"
         id="stop37482" /><stop
         style="stop-color:#2e2f30;stop-opacity:1;"
         offset="1"
         id="stop37483" /></linearGradient><linearGradient
       id="linearGradient37479"
       inkscape:collect="always"><stop
         style="stop-color:#252626;stop-opacity:1;"
         offset="0"
         id="stop37479" /><stop
         style="stop-color:#000000;stop-opacity:1;"
         offset="1"
         id="stop37480" /></linearGradient><linearGradient
       inkscape:collect="always"
       xlink:href="#linearGradient37479"
       id="linearGradient37480"
       x1="21.20294"
       y1="0.57470703"
       x2="21.20294"
       y2="128.57607"
       gradientUnits="userSpaceOnUse"
       gradientTransform="translate(-73.785197,-0.03905737)" /><linearGradient
       inkscape:collect="always"
       xlink:href="#linearGradient37482"
       id="linearGradient37483"
       x1="24.791456"
       y1="1.052719"
       x2="24.791456"
       y2="128.19475"
       gradientUnits="userSpaceOnUse"
       gradientTransform="translate(-73.785197,-0.03905737)" /><linearGradient
       inkscape:collect="always"
       xlink:href="#linearGradient37484"
       id="linearGradient37485"
       x1="34.743561"
       y1="64.293232"
       x2="42.823645"
       y2="64.293232"
       gradientUnits="userSpaceOnUse"
       gradientTransform="matrix(0.67712214,0,0,0.99987514,-56.793361,-0.05091329)" /><rect
       x="56.975098"
       y="80.308731"
       width="273.0929"
       height="99.784103"
       id="rect37485-9" /><linearGradient
       inkscape:collect="always"
       xlink:href="#linearGradient37482"
       id="linearGradient5"
       gradientUnits="userSpaceOnUse"
       x1="24.791456"
       y1="1.052719"
       x2="24.791456"
       y2="128.19475"
       gradientTransform="translate(-0.04152491,-0.03905715)" /><linearGradient
       inkscape:collect="always"
       xlink:href="#linearGradient37479"
       id="linearGradient6"
       gradientUnits="userSpaceOnUse"
       x1="21.20294"
       y1="0.57470703"
       x2="21.20294"
       y2="128.57607"
       gradientTransform="translate(-0.04152491,-0.03905715)" /><linearGradient
       inkscape:collect="always"
       xlink:href="#linearGradient37484"
       id="linearGradient7"
       gradientUnits="userSpaceOnUse"
       gradientTransform="matrix(0.67712214,0,0,0.99987514,16.950313,-0.05091312)"
       x1="34.743561"
       y1="64.293232"
       x2="42.823645"
       y2="64.293232" /><rect
       x="56.975098"
       y="80.308731"
       width="273.0929"
       height="99.784103"
       id="rect37485-9-7" /><linearGradient
       inkscape:collect="always"
       xlink:href="#linearGradient37482"
       id="linearGradient8"
       gradientUnits="userSpaceOnUse"
       gradientTransform="translate(-135.10634,-0.03905823)"
       x1="24.791456"
       y1="1.052719"
       x2="24.791456"
       y2="128.19475" /><linearGradient
       inkscape:collect="always"
       xlink:href="#linearGradient37479"
       id="linearGradient9"
       gradientUnits="userSpaceOnUse"
       gradientTransform="translate(-135.10634,-0.03905823)"
       x1="21.20294"
       y1="0.57470703"
       x2="21.20294"
       y2="128.57607" /><linearGradient
       inkscape:collect="always"
       xlink:href="#linearGradient37484"
       id="linearGradient10"
       gradientUnits="userSpaceOnUse"
       gradientTransform="matrix(0.67712214,0,0,0.99987514,-118.11451,-0.05091423)"
       x1="34.743561"
       y1="64.293232"
       x2="42.823645"
       y2="64.293232" /><rect
       x="56.975098"
       y="80.308731"
       width="273.0929"
       height="99.784103"
       id="rect37485-5" /></defs><g
     inkscape:label="Layer 1"
     inkscape:groupmode="layer"
     id="layer1"><rect
       style="fill:#000000;stroke-width:0.264583"
       id="rect37482"
       width="0"
       height="0"
       x="5.5593357"
       y="4.5892992" /><rect
       style="fill:url(#linearGradient37483);stroke-width:3.22552"
       id="rect37480"
       width="50.643139"
       height="128.36586"
       x="-73.655449"
       y="0.040171493" /><path
       inkscape:connector-curvature="0"
       id="path40444-2"
       d="M -22.940757,0.00862376 H -73.740769 V 128.50809 h 50.800012 z M -23.126797,128.32068 H -73.553359 V 0.19466035 h 50.426562 z m 0,0"
       style="display:inline;fill:url(#linearGradient37480);fill-opacity:1;fill-rule:nonzero;stroke:none;stroke-width:0.352778" /><path
       sodipodi:nodetypes="sssssssss"
       style="display:inline;fill:#000000;fill-opacity:0.423571;fill-rule:nonzero;stroke:none;stroke-width:0.352778"
       d="m -61.015568,61.148446 c 0,-0.54984 -0.449241,-0.99908 -0.999081,-0.99908 h -7.75461 c -0.54984,0 -0.999081,0.44924 -0.999081,0.99908 v 55.451964 c 0,0.54984 0.449241,0.99908 0.999081,0.99908 h 7.75461 c 0.54984,0 0.999081,-0.44925 0.999081,-0.99908 z"
       id="path44508-9"
       inkscape:connector-curvature="0" /><rect
       style="fill:#858585;fill-opacity:0.243055;stroke-width:0.264717"
       id="rect37483"
       width="50.427631"
       height="0.18739025"
       x="-73.552834"
       y="0.19523476" /><rect
       style="fill:url(#linearGradient37485);stroke-width:0.622709"
       id="rect37484"
       width="5.4712029"
       height="128.11063"
       x="-33.267742"
       y="0.17898135"
       ry="0" /><g
       id="g13"
       transform="translate(-134.91139,-0.27334637)"><path
         style="font-weight:600;font-size:14.6667px;font-family:Pinnacle;-inkscape-font-specification:'Pinnacle Semi-Bold';white-space:pre;shape-padding:0.634033;fill:#000000;fill-opacity:0.45408;stroke:#060606;stroke-width:0.0649999;stroke-opacity:0.628164"
         d="m 71.719152,4.4940353 h 0.601488 c 0.752829,0 1.24178,-0.4889514 1.24178,-1.2417809 V 1.77764 h -0.465667 v 1.4746144 c 0,0.4928317 -0.283282,0.7761131 -0.776113,0.7761131 H 71.719152 Z M 75.49494,2.1656964 h -1.102081 v 0.4656677 h 1.102081 c 0.170745,0 0.310445,0.1397005 0.310445,0.3104452 v 0.1241782 h -0.985664 c -0.395817,0 -0.714023,0.3182062 -0.714023,0.7140239 0,0.4074591 0.306564,0.7140239 0.714023,0.7140239 h 0.942978 c 0.283281,0 0.508354,-0.2250729 0.508354,-0.508354 v -1.043872 c 0,-0.4268621 -0.349251,-0.7761129 -0.776113,-0.7761129 z m 0.20955,1.8626711 h -0.884769 c -0.159103,0 -0.263878,-0.1047752 -0.263878,-0.2638784 0,-0.1435809 0.116417,-0.2638785 0.263878,-0.2638785 h 0.985664 v 0.4268621 c 0,0.058209 -0.04269,0.1008948 -0.100895,0.1008948 z m 2.312816,0.5005928 c 0.442385,0 0.834322,-0.2405952 1.039992,-0.597607 L 78.653719,3.6985194 c -0.128059,0.2250729 -0.372534,0.3647731 -0.636413,0.3647731 -0.407459,0 -0.737307,-0.3298481 -0.737307,-0.7373072 0,-0.4035787 0.329848,-0.7334268 0.737307,-0.7334268 0.263879,0 0.508354,0.1397005 0.636413,0.3608927 l 0.403579,-0.2289535 c -0.20567,-0.3608924 -0.597607,-0.5976069 -1.039992,-0.5976069 -0.663576,0 -1.202975,0.5355179 -1.202975,1.1990945 0,0.6635766 0.539399,1.202975 1.202975,1.202975 z m 1.637598,-0.034925 h 0.465667 V 1.3895835 h -0.465667 z m 1.602673,0 h 0.601487 L 80.819073,3.310463 c -0.02716,-0.031045 -0.03881,-0.054328 -0.03881,-0.073731 0,-0.023283 0.01552,-0.046567 0.03881,-0.073731 L 81.568022,2.1656959 H 81.00146 L 80.341764,3.046584 c -0.05045,0.06597 -0.07761,0.1358199 -0.07761,0.2017895 0,0.073731 0.03105,0.1435809 0.09701,0.2173116 z m 3.294601,0 h 0.485069 L 84.268897,2.1191297 C 84.175767,1.8552513 83.927407,1.680626 83.644126,1.680626 c -0.283282,0 -0.539398,0.1707449 -0.628653,0.4385037 l -0.768351,2.3749056 h 0.492833 L 82.92234,3.9274727 h 1.443572 z M 83.069803,3.4734466 83.457859,2.2743523 c 0.02716,-0.081492 0.104775,-0.1280586 0.186267,-0.1280586 0.08149,0 0.159102,0.046567 0.182385,0.1280586 l 0.391938,1.1990943 z m 3.45758,-1.3504362 c -0.368652,0 -0.702381,0.1707446 -0.923573,0.4346231 -0.07761,0.093134 -0.100896,0.1901475 -0.100896,0.3143258 v 1.622076 h 0.465669 V 2.8486759 c 0.170744,-0.1862672 0.360892,-0.2599978 0.5588,-0.2599978 0.399698,0 0.737309,0.3376091 0.737309,0.7373072 v 1.16805 h 0.465667 v -1.16805 c 0,-0.6558155 -0.54328,-1.2029749 -1.202976,-1.2029749 z m 3.438178,-0.7334269 v 0.8731271 c -0.166864,-0.089253 -0.35701,-0.1397002 -0.5588,-0.1397002 -0.659696,0 -1.202975,0.5471594 -1.202975,1.2029749 0,0.6558153 0.543279,1.202975 1.202975,1.202975 0.368652,0 0.6985,-0.1746256 0.923573,-0.4346234 0.08149,-0.093133 0.100897,-0.1901476 0.100897,-0.3143255 V 1.3895835 Z m -0.03104,2.4486362 c -0.120298,0.1358199 -0.314325,0.2250728 -0.527757,0.2250728 -0.399698,0 -0.737309,-0.3376091 -0.737309,-0.7373072 0,-0.3996981 0.337611,-0.7373072 0.737309,-0.7373072 0.20955,0 0.41134,0.093133 0.558799,0.2599978 v 0.9002908 c 0,0.042686 -0.0078,0.062089 -0.03104,0.089253 z m 1.117604,0.6558156 h 0.465669 V 2.2433077 h 1.156407 c 0.174625,0 0.310446,0.1397005 0.310446,0.3065648 0,0.1707446 -0.135821,0.3065645 -0.306565,0.3065645 h -0.217313 c -0.360891,0 -0.582083,0.2483561 -0.582083,0.5277567 0,0.1513421 0.06597,0.3104451 0.213431,0.446265 l 0.737307,0.6635766 h 0.694621 L 92.402559,3.4812079 c -0.02328,-0.019402 -0.03493,-0.042686 -0.03493,-0.073731 0,-0.046567 0.03881,-0.085372 0.09701,-0.085372 h 0.213431 c 0.426863,0 0.772232,-0.3453702 0.772232,-0.7722322 0,-0.4268621 -0.34925,-0.7722325 -0.776113,-0.7722325 h -1.156407 c -0.267761,0 -0.465669,0.1979088 -0.465669,0.4656677 z m 4.233696,-2.3283389 h -1.102082 v 0.4656677 h 1.102082 c 0.170744,0 0.310444,0.1397005 0.310444,0.3104452 v 0.1241782 h -0.985663 c -0.395817,0 -0.714023,0.3182062 -0.714023,0.7140239 0,0.4074591 0.306565,0.7140239 0.714023,0.7140239 h 0.942978 c 0.283281,0 0.508354,-0.2250729 0.508354,-0.508354 v -1.043872 c 0,-0.4268621 -0.349252,-0.7761129 -0.776113,-0.7761129 z m 0.20955,1.8626711 h -0.884769 c -0.159102,0 -0.263879,-0.1047752 -0.263879,-0.2638784 0,-0.1435809 0.116419,-0.2638785 0.263879,-0.2638785 h 0.985663 v 0.4268621 c 0,0.058209 -0.04269,0.1008948 -0.100894,0.1008948 z m 2.312816,0.5005928 c 0.442383,0 0.834321,-0.2405952 1.03999,-0.597607 l -0.40358,-0.2328339 c -0.128058,0.2250729 -0.372533,0.3647731 -0.63641,0.3647731 -0.407461,0 -0.737309,-0.3298481 -0.737309,-0.7373072 0,-0.4035787 0.329848,-0.7334268 0.737309,-0.7334268 0.263877,0 0.508352,0.1397005 0.63641,0.3608927 l 0.40358,-0.2289535 C 98.642508,2.3636053 98.25057,2.1268908 97.808187,2.1268908 c -0.663578,0 -1.202976,0.5355179 -1.202976,1.1990945 0,0.6635766 0.539398,1.202975 1.202976,1.202975 z m 1.637596,-0.034925 h 0.465669 V 1.3895835 h -0.465669 z m 1.602677,0 h 0.60149 l -1.04,-1.1835723 c -0.0272,-0.031045 -0.0388,-0.054328 -0.0388,-0.073731 0,-0.023283 0.0155,-0.046567 0.0388,-0.073731 l 0.74895,-0.9973051 h -0.56656 l -0.6597,0.8808881 c -0.0504,0.06597 -0.0776,0.1358199 -0.0776,0.2017895 0,0.073731 0.031,0.1435809 0.097,0.2173116 z"
         id="text37485-6"
         aria-label="JackAndRack" /><path
         style="font-weight:600;font-size:14.6667px;font-family:Pinnacle;-inkscape-font-specification:'Pinnacle Semi-Bold';white-space:pre;shape-padding:0.634033;fill:#aaaaaa;fill-opacity:0.84185;stroke:#ededed;stroke-width:0.0649999;stroke-opacity:0.95974"
         d="m 71.465346,4.2522091 h 0.601487 c 0.75283,0 1.241781,-0.4889514 1.241781,-1.2417809 V 1.5358138 h -0.465668 v 1.4746144 c 0,0.4928317 -0.283281,0.7761131 -0.776113,0.7761131 h -0.601487 z m 3.775787,-2.3283389 h -1.10208 v 0.4656677 h 1.10208 c 0.170745,0 0.310445,0.1397005 0.310445,0.3104452 v 0.1241782 h -0.985663 c -0.395818,0 -0.714024,0.3182062 -0.714024,0.7140239 0,0.4074591 0.306565,0.7140239 0.714024,0.7140239 h 0.942977 c 0.283281,0 0.508354,-0.2250729 0.508354,-0.508354 v -1.043872 c 0,-0.4268621 -0.349251,-0.7761129 -0.776113,-0.7761129 z m 0.209551,1.8626711 h -0.884769 c -0.159103,0 -0.263878,-0.1047752 -0.263878,-0.2638784 0,-0.1435809 0.116417,-0.2638785 0.263878,-0.2638785 h 0.985663 v 0.4268621 c 0,0.058209 -0.04269,0.1008948 -0.100894,0.1008948 z M 77.7635,4.2871341 c 0.442384,0 0.834321,-0.2405952 1.039991,-0.597607 L 78.399912,3.4566932 c -0.128058,0.2250729 -0.372534,0.3647731 -0.636412,0.3647731 -0.407459,0 -0.737307,-0.3298481 -0.737307,-0.7373072 0,-0.4035787 0.329848,-0.7334268 0.737307,-0.7334268 0.263878,0 0.508354,0.1397005 0.636412,0.3608927 L 78.803491,2.4826715 C 78.597821,2.1217792 78.205884,1.8850646 77.7635,1.8850646 c -0.663576,0 -1.202975,0.5355179 -1.202975,1.1990945 0,0.6635766 0.539399,1.202975 1.202975,1.202975 z m 1.637597,-0.034925 h 0.465668 V 1.1477573 h -0.465668 z m 1.602673,0 h 0.601488 L 80.565267,3.0686368 c -0.02716,-0.031045 -0.03881,-0.054328 -0.03881,-0.073731 0,-0.023283 0.01552,-0.046567 0.03881,-0.073731 l 0.748949,-0.9973046 h -0.566563 l -0.659696,0.8808881 c -0.05045,0.06597 -0.07761,0.1358199 -0.07761,0.2017895 0,0.073731 0.03104,0.1435809 0.09701,0.2173116 z m 3.294602,0 h 0.485069 l -0.76835,-2.3749056 c -0.09313,-0.2638784 -0.34149,-0.4385037 -0.624772,-0.4385037 -0.283281,0 -0.539398,0.1707449 -0.628652,0.4385037 l -0.768351,2.3749056 h 0.492832 l 0.182385,-0.5665626 h 1.443572 z M 82.815996,3.2316204 83.204053,2.0325261 c 0.02716,-0.081492 0.104775,-0.1280586 0.186266,-0.1280586 0.08149,0 0.159102,0.046567 0.182386,0.1280586 l 0.391938,1.1990943 z m 3.457581,-1.3504362 c -0.368652,0 -0.702382,0.1707446 -0.923573,0.4346231 -0.07761,0.093134 -0.100897,0.1901475 -0.100897,0.3143258 v 1.622076 h 0.46567 V 2.6068497 c 0.170743,-0.1862672 0.360891,-0.2599978 0.5588,-0.2599978 0.399698,0 0.737309,0.3376091 0.737309,0.7373072 v 1.16805 h 0.465666 v -1.16805 c 0,-0.6558155 -0.543279,-1.2029749 -1.202975,-1.2029749 z m 3.438178,-0.7334269 v 0.8731271 c -0.166865,-0.089253 -0.35701,-0.1397002 -0.5588,-0.1397002 -0.659696,0 -1.202976,0.5471594 -1.202976,1.2029749 0,0.6558153 0.54328,1.202975 1.202976,1.202975 0.368652,0 0.6985,-0.1746256 0.923573,-0.4346234 0.08149,-0.093133 0.100896,-0.1901476 0.100896,-0.3143255 V 1.1477573 Z m -0.03104,2.4486362 c -0.120298,0.1358199 -0.314325,0.2250728 -0.527756,0.2250728 -0.399698,0 -0.737309,-0.3376091 -0.737309,-0.7373072 0,-0.3996981 0.337611,-0.7373072 0.737309,-0.7373072 0.20955,0 0.41134,0.093133 0.5588,0.2599978 v 0.9002908 c 0,0.042686 -0.0078,0.062089 -0.03104,0.089253 z m 1.117606,0.6558156 H 91.26399 V 2.0014815 h 1.156406 c 0.174625,0 0.310447,0.1397005 0.310447,0.3065648 0,0.1707446 -0.135822,0.3065645 -0.306565,0.3065645 h -0.217313 c -0.360892,0 -0.582083,0.2483561 -0.582083,0.5277567 0,0.1513421 0.06597,0.3104451 0.213431,0.446265 l 0.737307,0.6635766 h 0.694617 L 92.148753,3.2393817 c -0.02328,-0.019402 -0.03492,-0.042686 -0.03492,-0.073731 0,-0.046567 0.03881,-0.085372 0.09701,-0.085372 h 0.213432 c 0.426863,0 0.772232,-0.3453702 0.772232,-0.7722322 0,-0.4268621 -0.349251,-0.7722325 -0.776114,-0.7722325 h -1.156406 c -0.267761,0 -0.465669,0.1979088 -0.465669,0.4656677 z m 4.233698,-2.3283389 h -1.102082 v 0.4656677 h 1.102082 c 0.170744,0 0.310444,0.1397005 0.310444,0.3104452 V 2.8241613 H 94.3568 c -0.395817,0 -0.714023,0.3182062 -0.714023,0.7140239 0,0.4074591 0.306564,0.7140239 0.714023,0.7140239 h 0.942977 c 0.283282,0 0.508355,-0.2250729 0.508355,-0.508354 v -1.043872 c 0,-0.4268621 -0.349253,-0.7761129 -0.776113,-0.7761129 z m 0.20955,1.8626711 H 94.3568 c -0.159102,0 -0.26388,-0.1047752 -0.26388,-0.2638784 0,-0.1435809 0.11642,-0.2638785 0.26388,-0.2638785 h 0.985663 v 0.4268621 c 0,0.058209 -0.04269,0.1008948 -0.100894,0.1008948 z m 2.312816,0.5005928 c 0.442383,0 0.834321,-0.2405952 1.039989,-0.597607 L 98.190791,3.4566932 c -0.128059,0.2250729 -0.372534,0.3647731 -0.63641,0.3647731 -0.407461,0 -0.737309,-0.3298481 -0.737309,-0.7373072 0,-0.4035787 0.329848,-0.7334268 0.737309,-0.7334268 0.263876,0 0.508351,0.1397005 0.63641,0.3608927 L 98.59437,2.4826715 C 98.388702,2.1217792 97.996764,1.8850646 97.554381,1.8850646 c -0.663578,0 -1.202976,0.5355179 -1.202976,1.1990945 0,0.6635766 0.539398,1.202975 1.202976,1.202975 z m 1.637596,-0.034925 h 0.465666 V 1.1477573 h -0.46567 z m 1.602679,0 h 0.60149 l -1.04,-1.1835723 c -0.0272,-0.031045 -0.0388,-0.054328 -0.0388,-0.073731 0,-0.023283 0.0155,-0.046567 0.0388,-0.073731 l 0.74895,-0.9973051 h -0.56657 l -0.659688,0.8808881 c -0.0504,0.06597 -0.07761,0.1358199 -0.07761,0.2017895 0,0.073731 0.03105,0.1435809 0.09701,0.2173116 z"
         id="text37485"
         aria-label="JackAndRack" /></g><path
       style="font-size:4.23333px;font-family:Pinnacle;-inkscape-font-specification:Pinnacle;white-space:pre;inline-size:22.7942;fill:#dddddd;fill-opacity:0.800499;stroke:#ededed;stroke-width:0.065;stroke-opacity:0.951926"
       d="m -28.868894,122.65944 v -1.6891 c 0,-0.45296 -0.3683,-0.82549 -0.825497,-0.82549 -0.457207,0 -0.825504,0.3683 -0.825504,0.82549 v 0.92287 c 0,0.27093 -0.2159,0.48683 -0.486827,0.48683 -0.27094,0 -0.486837,-0.2159 -0.486837,-0.48683 v -1.57903 h -0.33867 v 1.57903 c 0,0.4572 0.37254,0.8255 0.825507,0.8255 0.457197,0 0.825494,-0.3683 0.825494,-0.8255 v -0.92287 c 0,-0.27093 0.2159,-0.48683 0.486837,-0.48683 0.27093,0 0.486827,0.2159 0.486827,0.48683 v 1.6891 z m -2.201328,-4.68206 h -0.338667 v 1.22767 h -0.42334 v 0.33866 h 2.158998 c 0.444507,0 0.804337,-0.36406 0.804337,-0.80433 v -0.762 h -0.33867 v 0.762 c 0,0.25823 -0.207427,0.46567 -0.465667,0.46567 h -1.396991 z m 2.201328,-0.67734 v -0.33867 h -3.386662 v 0.33867 z m 0,-1.72296 v -0.46568 l -1.244604,1.25307 c -0.0423,0.0466 -0.0762,0.0677 -0.10583,0.0677 -0.0339,0 -0.0677,-0.0254 -0.110067,-0.0593 l -1.079494,-0.94403 v 0.43603 l 0.922864,0.8001 c 0.0889,0.0804 0.18203,0.11853 0.270927,0.11853 0.0974,0 0.1905,-0.0423 0.2794,-0.1397 z m -2.624665,-3.56024 h -0.33867 v 2.16323 c 0,0.22014 0.11854,0.33867 0.33867,0.33867 h 2.285995 c 0.22014,0 0.33867,-0.11853 0.33867,-0.33867 v -2.16323 h -0.33867 v 2.16323 h -0.973664 v -1.49436 h -0.338667 v 1.49436 h -0.973664 z m 2.662765,-1.80763 c 0,-0.6223 -0.507997,-1.1303 -1.134534,-1.1303 h -1.443561 v 0.33867 h 1.443561 c 0.440267,0 0.795864,0.3556 0.795864,0.79163 0,0.43603 -0.355597,0.79163 -0.795864,0.79163 h -1.443561 v 0.33867 h 1.443561 c 0.626537,0 1.134534,-0.508 1.134534,-1.1303 z m -0.0381,-1.80763 v -0.33867 h -1.756831 c -0.0804,0 -0.1143,-0.0127 -0.14817,-0.0423 -0.220127,-0.18627 -0.342897,-0.45297 -0.342897,-0.7366 0,-0.18203 0.0508,-0.35136 0.1397,-0.4953 l -0.29633,-0.1651 c -0.114297,0.19474 -0.182037,0.4191 -0.182037,0.6604 0,0.40217 0.186267,0.76622 0.474137,1.00753 0.1016,0.0847 0.207427,0.11007 0.342897,0.11007 z m 0.0381,-3.42053 c 0,-0.72813 -0.588437,-1.31657 -1.312334,-1.31657 -0.723894,0 -1.312331,0.59267 -1.312331,1.31657 0,0.7239 0.588437,1.31233 1.312331,1.31233 0.723897,0 1.312334,-0.58843 1.312334,-1.31233 z m -0.33867,0 c 0,0.53763 -0.436027,0.97367 -0.973664,0.97367 -0.537637,0 -0.973664,-0.43604 -0.973664,-0.97367 0,-0.53763 0.436027,-0.9779 0.973664,-0.9779 0.537637,0 0.973664,0.43603 0.973664,0.9779 z"
       id="text1"
       aria-label="StkEuro" /><path
       style="font-size:2.11667px;font-family:Pinnacle;-inkscape-font-specification:Pinnacle;fill:#f2f2f2;fill-opacity:0.596571;stroke:#111111;stroke-width:0.065;stroke-opacity:0.356716"
       d="m -67.659627,116.01204 c 0.436034,0 0.787401,-0.3556 0.787401,-0.79376 0,-0.43815 -0.351367,-0.79376 -0.787401,-0.79376 -0.433918,0 -0.785285,0.3556 -0.785285,0.79376 0,0.43815 0.351367,0.79376 0.785285,0.79376 z m 0,-0.16934 c -0.342901,0 -0.618068,-0.2794 -0.618068,-0.62442 0,-0.34502 0.275167,-0.62441 0.618068,-0.62441 0.345017,0 0.620183,0.27939 0.620183,0.62441 0,0.34502 -0.275166,0.62442 -0.620183,0.62442 z m 1.703921,0.16934 c 0.340784,0 0.618067,-0.27729 0.618067,-0.61807 v -0.91653 h -0.169334 v 0.91653 c 0,0.24764 -0.201083,0.44873 -0.448733,0.44873 -0.249767,0 -0.450851,-0.20109 -0.450851,-0.44873 v -0.91653 h -0.169334 v 0.91653 c 0,0.34077 0.277284,0.61807 0.620185,0.61807 z m 2.252139,-1.53459 h -1.312336 v 0.1651 h 0.571501 v 1.31657 h 0.169334 v -1.31657 h 0.571501 z"
       id="text3"
       aria-label="OUT" /><text
       xml:space="preserve"
       transform="scale(0.26458333)"
       id="text4"
       style="font-style:normal;font-variant:normal;font-weight:600;font-stretch:normal;font-size:8px;font-family:Pinnacle;-inkscape-font-specification:'Pinnacle Semi-Bold';white-space:pre;shape-inside:url(#rect4);display:inline;fill:#090909;fill-opacity:0.59895;stroke:#050505;stroke-width:0.245669;stroke-dasharray:none;stroke-opacity:0.761345" /><rect
       style="fill:url(#linearGradient5);stroke-width:3.22552"
       id="rect37480-0"
       width="50.643139"
       height="128.36586"
       x="0.088237844"
       y="0.040172029" /><path
       sodipodi:nodetypes="sssssssss"
       style="display:inline;fill:#000000;fill-opacity:0.420537;fill-rule:nonzero;stroke:none;stroke-width:0.49002"
       d="m 12.738967,10.75597 c 0,-1.0412615 -0.457697,-1.8920128 -1.017894,-1.8920128 H 3.8204719 c -0.5601867,0 -1.0178934,0.8507513 -1.0178934,1.8920128 v 105.01216 c 0,1.04124 0.4577067,1.89201 1.0178934,1.89201 h 7.9006011 c 0.560197,0 1.017894,-0.85077 1.017894,-1.89201 z"
       id="path44508"
       inkscape:connector-curvature="0" /><path
       inkscape:connector-curvature="0"
       id="path40444-2-2"
       d="M 50.802911,0.00862385 H 0.00290509 V 128.50809 H 50.802911 Z M 50.616874,128.32068 H 0.19031509 V 0.19466086 H 50.616874 Z m 0,0"
       style="display:inline;fill:url(#linearGradient6);fill-opacity:1;fill-rule:nonzero;stroke:none;stroke-width:0.352778" /><rect
       style="fill:#858585;fill-opacity:0.243055;stroke-width:0.264717"
       id="rect37483-6"
       width="50.427631"
       height="0.18739025"
       x="0.19081505"
       y="0.19523476" /><rect
       style="fill:url(#linearGradient7);stroke-width:0.622709"
       id="rect37484-1"
       width="5.4712029"
       height="128.11063"
       x="40.47591"
       y="0.17898129"
       ry="0" /><g
       id="g12"
       transform="translate(-135.40803,-0.42574364)"><path
         style="font-weight:600;font-size:14.6667px;font-family:Pinnacle;-inkscape-font-specification:'Pinnacle Semi-Bold';white-space:pre;shape-padding:0.634033;fill:#000000;fill-opacity:0.45408;stroke:#060606;stroke-width:0.0649999;stroke-opacity:0.628164"
         d="m 150.28419,4.4940352 h 0.60149 c 0.75283,0 1.24178,-0.4889514 1.24178,-1.2417809 V 1.7776399 h -0.46566 v 1.4746144 c 0,0.4928317 -0.28328,0.7761131 -0.77612,0.7761131 h -0.60149 z m 3.7758,-2.3283389 h -1.10208 V 2.631364 h 1.10208 c 0.17075,0 0.31046,0.1397005 0.31046,0.3104452 v 0.1241782 h -0.98567 c -0.39582,0 -0.71403,0.3182062 -0.71403,0.7140239 0,0.4074591 0.30657,0.7140239 0.71403,0.7140239 h 0.94297 c 0.28329,0 0.50837,-0.2250729 0.50837,-0.508354 v -1.043872 c 0,-0.4268621 -0.34925,-0.7761129 -0.77613,-0.7761129 z m 0.20955,1.8626711 h -0.88476 c -0.15911,0 -0.26388,-0.1047752 -0.26388,-0.2638784 0,-0.1435809 0.11641,-0.2638785 0.26388,-0.2638785 h 0.98567 v 0.4268621 c 0,0.058209 -0.0427,0.1008948 -0.10091,0.1008948 z m 2.31284,0.5005928 c 0.44238,0 0.83432,-0.2405952 1.04,-0.597607 l -0.40359,-0.2328339 c -0.12806,0.2250729 -0.37253,0.3647731 -0.63641,0.3647731 -0.40746,0 -0.73732,-0.3298481 -0.73732,-0.7373072 0,-0.4035787 0.32986,-0.7334268 0.73732,-0.7334268 0.26388,0 0.50835,0.1397005 0.63641,0.3608927 l 0.40359,-0.2289535 c -0.20568,-0.3608924 -0.59762,-0.5976069 -1.04,-0.5976069 -0.66358,0 -1.20298,0.5355179 -1.20298,1.1990945 0,0.6635766 0.5394,1.202975 1.20298,1.202975 z m 1.63761,-0.034925 h 0.46567 V 1.3895834 h -0.46567 z m 1.60268,0 h 0.60149 l -1.04,-1.1835723 c -0.0272,-0.031045 -0.0388,-0.054328 -0.0388,-0.073731 0,-0.023283 0.0155,-0.046567 0.0388,-0.073731 l 0.74896,-0.9973051 h -0.56658 l -0.65969,0.8808881 c -0.0505,0.06597 -0.0776,0.1358199 -0.0776,0.2017895 0,0.073731 0.031,0.1435809 0.097,0.2173116 z m 1.14477,0 h 0.46568 V 2.2433076 h 1.1564 c 0.17462,0 0.31044,0.1397005 0.31044,0.3065648 0,0.1707446 -0.13582,0.3065645 -0.30657,0.3065645 h -0.21731 c -0.36089,0 -0.58209,0.2483561 -0.58209,0.5277567 0,0.1513421 0.066,0.3104451 0.21344,0.446265 l 0.73731,0.6635766 h 0.69462 l -1.12148,-1.0128274 c -0.0233,-0.019402 -0.0349,-0.042686 -0.0349,-0.073731 0,-0.046567 0.0388,-0.085372 0.097,-0.085372 h 0.21343 c 0.42687,0 0.77224,-0.3453702 0.77224,-0.7722322 0,-0.4268621 -0.34925,-0.7722325 -0.77611,-0.7722325 h -1.1564 c -0.26777,0 -0.46568,0.1979088 -0.46568,0.4656677 z m 4.23372,-2.3283389 h -1.10209 V 2.631364 h 1.10209 c 0.17074,0 0.31044,0.1397005 0.31044,0.3104452 v 0.1241782 h -0.98567 c -0.39582,0 -0.71403,0.3182062 -0.71403,0.7140239 0,0.4074591 0.30657,0.7140239 0.71403,0.7140239 h 0.94298 c 0.28329,0 0.50836,-0.2250729 0.50836,-0.508354 v -1.043872 c 0,-0.4268621 -0.34925,-0.7761129 -0.77611,-0.7761129 z m 0.20955,1.8626711 h -0.88478 c -0.15911,0 -0.26388,-0.1047752 -0.26388,-0.2638784 0,-0.1435809 0.11642,-0.2638785 0.26388,-0.2638785 h 0.98567 v 0.4268621 c 0,0.058209 -0.0427,0.1008948 -0.10089,0.1008948 z m 2.31282,0.5005928 c 0.44239,0 0.83432,-0.2405952 1.03999,-0.597607 l -0.40358,-0.2328339 c -0.12805,0.2250729 -0.37253,0.3647731 -0.63641,0.3647731 -0.40746,0 -0.73731,-0.3298481 -0.73731,-0.7373072 0,-0.4035787 0.32985,-0.7334268 0.73731,-0.7334268 0.26388,0 0.50836,0.1397005 0.63641,0.3608927 l 0.40358,-0.2289535 c -0.20567,-0.3608924 -0.5976,-0.5976069 -1.03999,-0.5976069 -0.66358,0 -1.20298,0.5355179 -1.20298,1.1990945 0,0.6635766 0.5394,1.202975 1.20298,1.202975 z m 1.63761,-0.034925 h 0.46567 V 1.3895834 h -0.46567 z m 1.60268,0 h 0.60149 l -1.03999,-1.1835723 c -0.0272,-0.031045 -0.0388,-0.054328 -0.0388,-0.073731 0,-0.023283 0.0155,-0.046567 0.0388,-0.073731 l 0.74895,-0.9973051 h -0.56657 l -0.6597,0.8808881 c -0.0504,0.06597 -0.0776,0.1358199 -0.0776,0.2017895 0,0.073731 0.031,0.1435809 0.097,0.2173116 z"
         id="text37485-3-2"
         aria-label="JackRack" /><path
         style="font-weight:600;font-size:14.6667px;font-family:Pinnacle;-inkscape-font-specification:'Pinnacle Semi-Bold';white-space:pre;shape-padding:0.634033;fill:#aaaaaa;fill-opacity:0.84185;stroke:#ededed;stroke-width:0.0649999;stroke-opacity:0.95974"
         d="m 150.03038,4.3151776 h 0.60149 c 0.75283,0 1.24179,-0.4889514 1.24179,-1.2417809 V 1.5987823 h -0.46567 v 1.4746144 c 0,0.4928317 -0.28329,0.7761131 -0.77612,0.7761131 h -0.60149 z m 3.77581,-2.3283389 h -1.10209 v 0.4656677 h 1.10209 c 0.17074,0 0.31044,0.1397005 0.31044,0.3104452 v 0.1241782 h -0.98566 c -0.39583,0 -0.71403,0.3182062 -0.71403,0.7140239 0,0.4074591 0.30656,0.7140239 0.71403,0.7140239 h 0.94298 c 0.28328,0 0.50836,-0.2250729 0.50836,-0.508354 v -1.043872 c 0,-0.4268621 -0.34926,-0.7761129 -0.77612,-0.7761129 z m 0.20955,1.8626711 h -0.88477 c -0.15911,0 -0.26388,-0.1047752 -0.26388,-0.2638784 0,-0.1435809 0.11641,-0.2638785 0.26388,-0.2638785 h 0.98566 V 3.748615 c 0,0.058209 -0.0427,0.1008948 -0.10089,0.1008948 z m 2.31283,0.5005928 c 0.44239,0 0.83433,-0.2405952 1.04,-0.597607 l -0.40359,-0.2328339 c -0.12805,0.2250729 -0.37253,0.3647731 -0.63641,0.3647731 -0.40746,0 -0.73731,-0.3298481 -0.73731,-0.7373072 0,-0.4035787 0.32985,-0.7334268 0.73731,-0.7334268 0.26388,0 0.50836,0.1397005 0.63641,0.3608927 L 157.36857,2.54564 c -0.20567,-0.3608924 -0.59761,-0.5976069 -1.04,-0.5976069 -0.66358,0 -1.20298,0.5355179 -1.20298,1.1990945 0,0.6635766 0.5394,1.202975 1.20298,1.202975 z m 1.6376,-0.034925 h 0.46568 V 1.2107258 h -0.46568 z m 1.60269,0 h 0.60149 l -1.04,-1.1835723 c -0.0272,-0.031045 -0.0388,-0.054328 -0.0388,-0.073731 0,-0.023283 0.0155,-0.046567 0.0388,-0.073731 l 0.74896,-0.9973051 h -0.56657 l -0.6597,0.8808881 c -0.0504,0.06597 -0.0776,0.1358199 -0.0776,0.2017895 0,0.073731 0.031,0.1435809 0.097,0.2173116 z m 1.14477,0 h 0.46567 V 2.06445 h 1.15641 c 0.17463,0 0.31045,0.1397005 0.31045,0.3065648 0,0.1707446 -0.13582,0.3065645 -0.30657,0.3065645 h -0.21731 c -0.3609,0 -0.5821,0.2483561 -0.5821,0.5277567 0,0.1513421 0.066,0.3104451 0.21344,0.446265 l 0.73731,0.6635766 h 0.69462 l -1.12148,-1.0128274 c -0.0233,-0.019402 -0.0349,-0.042686 -0.0349,-0.073731 0,-0.046567 0.0388,-0.085372 0.097,-0.085372 h 0.21343 c 0.42686,0 0.77223,-0.3453702 0.77223,-0.7722322 0,-0.4268621 -0.34925,-0.7722325 -0.77611,-0.7722325 h -1.15641 c -0.26776,0 -0.46567,0.1979088 -0.46567,0.4656677 z m 4.23371,-2.3283389 h -1.10208 v 0.4656677 h 1.10208 c 0.17075,0 0.31046,0.1397005 0.31046,0.3104452 v 0.1241782 h -0.98568 c -0.39581,0 -0.71403,0.3182062 -0.71403,0.7140239 0,0.4074591 0.30657,0.7140239 0.71403,0.7140239 h 0.94299 c 0.28328,0 0.50835,-0.2250729 0.50835,-0.508354 v -1.043872 c 0,-0.4268621 -0.34925,-0.7761129 -0.77612,-0.7761129 z m 0.20956,1.8626711 h -0.88478 c -0.1591,0 -0.26387,-0.1047752 -0.26387,-0.2638784 0,-0.1435809 0.11641,-0.2638785 0.26387,-0.2638785 h 0.98568 V 3.748615 c 0,0.058209 -0.0427,0.1008948 -0.1009,0.1008948 z m 2.31283,0.5005928 c 0.44238,0 0.83432,-0.2405952 1.03999,-0.597607 l -0.40358,-0.2328339 c -0.12806,0.2250729 -0.37253,0.3647731 -0.63641,0.3647731 -0.40747,0 -0.73732,-0.3298481 -0.73732,-0.7373072 0,-0.4035787 0.32985,-0.7334268 0.73732,-0.7334268 0.26388,0 0.50835,0.1397005 0.63641,0.3608927 L 168.50972,2.54564 c -0.20567,-0.3608924 -0.59761,-0.5976069 -1.03999,-0.5976069 -0.66359,0 -1.20299,0.5355179 -1.20299,1.1990945 0,0.6635766 0.5394,1.202975 1.20299,1.202975 z m 1.63761,-0.034925 H 169.573 V 1.2107258 h -0.46566 z m 1.60268,0 h 0.60149 l -1.04,-1.1835723 c -0.0272,-0.031045 -0.0388,-0.054328 -0.0388,-0.073731 0,-0.023283 0.0155,-0.046567 0.0388,-0.073731 l 0.74895,-0.9973051 h -0.56656 l -0.6597,0.8808881 c -0.0504,0.06597 -0.0776,0.1358199 -0.0776,0.2017895 0,0.073731 0.031,0.1435809 0.097,0.2173116 z"
         id="text37485-3"
         aria-label="JackRack" /></g><path
       style="font-size:4.23333px;font-family:Pinnacle;-inkscape-font-specification:Pinnacle;white-space:pre;inline-size:22.7942;fill:#dddddd;fill-opacity:0.800499;stroke:#ededed;stroke-width:0.065;stroke-opacity:0.951926"
       d="m 44.874774,122.65943 v -1.6891 c 0,-0.45296 -0.368297,-0.8255 -0.825504,-0.8255 -0.457197,0 -0.825494,0.3683 -0.825494,0.8255 v 0.92287 c 0,0.27093 -0.2159,0.48683 -0.48685,0.48683 -0.270927,0 -0.486827,-0.2159 -0.486827,-0.48683 v -1.57903 h -0.338667 v 1.57903 c 0,0.4572 0.372537,0.8255 0.825494,0.8255 0.45721,0 0.825507,-0.3683 0.825507,-0.8255 v -0.92287 c 0,-0.27093 0.2159,-0.48683 0.486837,-0.48683 0.270927,0 0.486837,0.2159 0.486837,0.48683 v 1.6891 z m -2.201345,-4.68206 h -0.33866 v 1.22766 h -0.423337 v 0.33867 h 2.158998 c 0.444507,0 0.804344,-0.36407 0.804344,-0.80433 v -0.762 h -0.338667 v 0.762 c 0,0.25823 -0.20744,0.46566 -0.465677,0.46566 h -1.397001 z m 2.201345,-0.67734 v -0.33866 h -3.386669 v 0.33866 z m 0,-1.72296 v -0.46567 l -1.244601,1.25307 c -0.0423,0.0466 -0.0762,0.0677 -0.10584,0.0677 -0.0339,0 -0.0677,-0.0254 -0.11006,-0.0593 l -1.079504,-0.94404 v 0.43604 l 0.922864,0.8001 c 0.0889,0.0804 0.18204,0.11853 0.27094,0.11853 0.0974,0 0.1905,-0.0423 0.279397,-0.1397 z m -2.624675,-3.56023 h -0.338667 v 2.16323 c 0,0.22013 0.11854,0.33867 0.338667,0.33867 h 2.286008 c 0.22013,0 0.338667,-0.11854 0.338667,-0.33867 v -2.16323 h -0.338667 v 2.16323 h -0.973674 v -1.49436 h -0.338657 v 1.49436 h -0.973677 z m 2.662775,-1.80763 c 0,-0.6223 -0.508007,-1.1303 -1.134541,-1.1303 h -1.443564 v 0.33867 h 1.443564 c 0.440267,0 0.795874,0.3556 0.795874,0.79163 0,0.43603 -0.355607,0.79163 -0.795874,0.79163 h -1.443564 v 0.33867 h 1.443564 c 0.626534,0 1.134531,-0.508 1.134541,-1.1303 z m -0.0381,-1.80763 v -0.33867 h -1.756838 c -0.0804,0 -0.1143,-0.0127 -0.14816,-0.0423 -0.22015,-0.18627 -0.342907,-0.45297 -0.342907,-0.7366 0,-0.18203 0.0508,-0.35137 0.139697,-0.4953 l -0.296337,-0.1651 c -0.1143,0.19473 -0.18203,0.4191 -0.18203,0.6604 0,0.40217 0.18627,0.76623 0.474127,1.00753 0.10161,0.0847 0.20745,0.11007 0.34291,0.11007 z m 0.0381,-3.42053 c 0,-0.72814 -0.588447,-1.31657 -1.312341,-1.31657 -0.723897,0 -1.312334,0.59267 -1.312334,1.31657 0,0.7239 0.588437,1.31233 1.312334,1.31233 0.723894,0 1.312341,-0.58843 1.312341,-1.31233 z m -0.338667,0 c 0,0.53763 -0.436037,0.97366 -0.973674,0.97366 -0.537627,0 -0.973664,-0.43603 -0.973664,-0.97366 0,-0.53764 0.436037,-0.9779 0.973664,-0.9779 0.537637,0 0.973674,0.43603 0.973674,0.9779 z"
       id="text1-2"
       aria-label="StkEuro" /><path
       style="font-size:2.11667px;font-family:Pinnacle;-inkscape-font-specification:Pinnacle;fill:#f2f2f2;fill-opacity:0.602337;stroke:#111111;stroke-width:0.065;stroke-opacity:0.368805"
       d="m 6.0840487,116.01203 c 0.4360367,0 0.7874034,-0.3556 0.7874034,-0.79376 0,-0.43815 -0.3513667,-0.79375 -0.7874034,-0.79375 -0.433907,0 -0.7852767,0.3556 -0.7852767,0.79375 0,0.43816 0.3513697,0.79376 0.7852767,0.79376 z m 0,-0.16934 c -0.3429,0 -0.6180667,-0.2794 -0.6180667,-0.62442 0,-0.34501 0.2751667,-0.62441 0.6180667,-0.62441 0.3450167,0 0.6201864,0.2794 0.6201864,0.62441 0,0.34502 -0.2751697,0.62442 -0.6201864,0.62442 z m 1.7039298,0.16934 c 0.340777,0 0.6180637,-0.27729 0.6180637,-0.61807 v -0.91652 H 8.2367055 v 0.91652 c 0,0.24765 -0.20108,0.44873 -0.448727,0.44873 -0.2497697,0 -0.4508597,-0.20108 -0.4508597,-0.44873 v -0.91652 H 7.1677921 v 0.91652 c 0,0.34078 0.2772767,0.61807 0.6201864,0.61807 z m 2.2521335,-1.53459 H 8.7277722 v 0.1651 h 0.5715067 v 1.31657 h 0.1693267 v -1.31657 h 0.5715064 z"
       id="text3-1"
       aria-label="OUT" /><rect
       style="fill:url(#linearGradient8);stroke-width:3.22552"
       id="rect37480-0-8"
       width="50.643139"
       height="128.36586"
       x="-134.97658"
       y="0.040174652" /><g
       id="g14"
       transform="translate(-135.19343,-0.12094912)"><path
         style="font-weight:600;font-size:14.6667px;font-family:Pinnacle;-inkscape-font-specification:'Pinnacle Semi-Bold';white-space:pre;shape-padding:0.634033;fill:#000000;fill-opacity:0.45408;stroke:#060606;stroke-width:0.0649999;stroke-opacity:0.628164"
         d="m 15.03593,4.1892407 h 0.465667 V 1.938513 h 1.156404 c 0.17462,0 0.31044,0.1397006 0.31044,0.3065649 0,0.1707446 -0.13582,0.3065645 -0.30656,0.3065645 h -0.217307 c -0.3609,0 -0.582087,0.2483561 -0.582087,0.5277567 0,0.1513421 0.066,0.3104451 0.213427,0.446265 l 0.737307,0.6635766 h 0.694617 L 16.386364,3.1764133 c -0.0233,-0.019402 -0.0349,-0.042686 -0.0349,-0.073731 0,-0.046567 0.0388,-0.085372 0.097,-0.085372 h 0.213427 c 0.426857,0 0.772227,-0.3453702 0.772227,-0.7722322 0,-0.4268622 -0.34925,-0.7722326 -0.776107,-0.7722326 h -1.156404 c -0.267757,0 -0.465667,0.1979088 -0.465667,0.4656677 z m 4.233676,-2.328339 h -1.102074 v 0.4656678 h 1.102074 c 0.17074,0 0.31044,0.1397005 0.31044,0.3104452 v 0.1241782 h -0.985657 c -0.395817,0 -0.714014,0.3182062 -0.714014,0.7140239 0,0.4074591 0.306557,0.7140239 0.714014,0.7140239 h 0.942977 c 0.283277,0 0.508347,-0.2250729 0.508347,-0.508354 v -1.043872 c 0,-0.4268621 -0.34925,-0.776113 -0.776107,-0.776113 z m 0.20955,1.8626712 h -0.884767 c -0.159097,0 -0.263877,-0.1047752 -0.263877,-0.2638784 0,-0.1435809 0.11642,-0.2638785 0.263877,-0.2638785 h 0.985657 v 0.4268621 c 0,0.058209 -0.0427,0.1008948 -0.10089,0.1008948 z m 2.312795,0.5005928 c 0.44239,0 0.834327,-0.2405952 1.039994,-0.597607 L 22.428368,3.3937248 c -0.12806,0.2250729 -0.372537,0.3647731 -0.636417,0.3647731 -0.407447,0 -0.737294,-0.3298481 -0.737294,-0.7373072 0,-0.4035787 0.329847,-0.7334268 0.737294,-0.7334268 0.26388,0 0.508357,0.1397005 0.636417,0.3608927 l 0.403577,-0.2289535 c -0.205667,-0.3608924 -0.597604,-0.597607 -1.039994,-0.597607 -0.663564,0 -1.202961,0.535518 -1.202961,1.1990946 0,0.6635766 0.539397,1.202975 1.202961,1.202975 z m 1.637591,-0.034925 h 0.465667 V 1.0847888 h -0.465667 z m 1.602671,0 H 25.63369 L 24.593706,3.0056684 c -0.0272,-0.031045 -0.0388,-0.054328 -0.0388,-0.073731 0,-0.023283 0.0155,-0.046567 0.0388,-0.073731 l 0.748947,-0.9973052 h -0.566557 l -0.659697,0.8808882 c -0.0504,0.06597 -0.0776,0.1358199 -0.0776,0.2017895 0,0.073731 0.031,0.1435809 0.097,0.2173116 z m 1.082664,0 h 0.601487 c 0.752827,0 1.241774,-0.4889514 1.241774,-1.2417809 V 1.4728453 h -0.465667 v 1.4746145 c 0,0.4928317 -0.28328,0.7761131 -0.776107,0.7761131 h -0.601487 z m 3.775769,-2.328339 h -1.102074 v 0.4656678 h 1.102074 c 0.17075,0 0.31045,0.1397005 0.31045,0.3104452 v 0.1241782 h -0.985667 c -0.395807,0 -0.714014,0.3182062 -0.714014,0.7140239 0,0.4074591 0.306557,0.7140239 0.714014,0.7140239 h 0.942977 c 0.283277,0 0.508347,-0.2250729 0.508347,-0.508354 v -1.043872 c 0,-0.4268621 -0.34925,-0.776113 -0.776107,-0.776113 z m 0.20955,1.8626712 h -0.884767 c -0.159097,0 -0.263867,-0.1047752 -0.263867,-0.2638784 0,-0.1435809 0.11641,-0.2638785 0.263867,-0.2638785 h 0.985667 v 0.4268621 c 0,0.058209 -0.0427,0.1008948 -0.1009,0.1008948 z m 2.312805,0.5005928 c 0.44238,0 0.834317,-0.2405952 1.039984,-0.597607 L 33.049408,3.3937248 c -0.12806,0.2250729 -0.372527,0.3647731 -0.636407,0.3647731 -0.407457,0 -0.737304,-0.3298481 -0.737304,-0.7373072 0,-0.4035787 0.329847,-0.7334268 0.737304,-0.7334268 0.26388,0 0.508347,0.1397005 0.636407,0.3608927 l 0.403577,-0.2289535 c -0.205667,-0.3608924 -0.597604,-0.597607 -1.039984,-0.597607 -0.663574,0 -1.202971,0.535518 -1.202971,1.1990946 0,0.6635766 0.539397,1.202975 1.202971,1.202975 z m 1.637591,-0.034925 h 0.465657 V 1.0847888 h -0.465657 z m 1.602666,0 h 0.601488 L 35.214754,3.0056684 c -0.02717,-0.031045 -0.03881,-0.054328 -0.03881,-0.073731 0,-0.023283 0.01553,-0.046567 0.03881,-0.073731 l 0.748948,-0.9973047 h -0.566563 l -0.65969,0.8808882 c -0.0504,0.06597 -0.0776,0.1358199 -0.0776,0.2017895 0,0.073731 0.0311,0.1435809 0.097,0.2173116 z"
         id="text37485-9-5"
         aria-label="RackJack" /><path
         style="font-weight:600;font-size:14.6667px;font-family:Pinnacle;-inkscape-font-specification:'Pinnacle Semi-Bold';white-space:pre;shape-padding:0.634033;fill:#aaaaaa;fill-opacity:0.84185;stroke:#ededed;stroke-width:0.0649999;stroke-opacity:0.95974"
         d="M 14.782123,4.0103831 H 15.24779 V 1.7596554 h 1.156404 c 0.174627,0 0.310447,0.1397005 0.310447,0.3065649 0,0.1707446 -0.13582,0.3065645 -0.306567,0.3065645 h -0.21731 c -0.360887,0 -0.582087,0.2483561 -0.582087,0.5277567 0,0.1513421 0.066,0.3104451 0.21344,0.446265 l 0.737294,0.6635766 h 0.694617 L 16.132554,2.9975557 c -0.0233,-0.019402 -0.0349,-0.042686 -0.0349,-0.073731 0,-0.046567 0.0388,-0.085372 0.097,-0.085372 h 0.21343 c 0.426857,0 0.772224,-0.3453702 0.772224,-0.7722322 0,-0.4268622 -0.349247,-0.7722326 -0.776104,-0.7722326 H 15.2478 c -0.26776,0 -0.465657,0.1979088 -0.465657,0.4656677 z m 4.233676,-2.328339 h -1.102074 v 0.4656678 h 1.102074 c 0.170747,0 0.310447,0.1397005 0.310447,0.3104452 v 0.1241782 h -0.985664 c -0.395807,0 -0.714017,0.3182062 -0.714017,0.7140239 0,0.4074591 0.30656,0.7140239 0.714017,0.7140239 h 0.942974 c 0.28328,0 0.508347,-0.2250729 0.508347,-0.508354 v -1.043872 c 0,-0.426862 -0.349247,-0.776113 -0.776104,-0.776113 z m 0.209547,1.8626712 h -0.884764 c -0.1591,0 -0.26388,-0.1047752 -0.26388,-0.2638784 0,-0.1435809 0.11642,-0.2638785 0.26388,-0.2638785 h 0.985664 v 0.4268621 c 0,0.058209 -0.0427,0.1008948 -0.1009,0.1008948 z m 2.312808,0.5005928 c 0.442377,0 0.834314,-0.2405952 1.039984,-0.597607 L 22.174561,3.2148672 c -0.12806,0.2250729 -0.37253,0.3647731 -0.636407,0.3647731 -0.407457,0 -0.737307,-0.3298481 -0.737307,-0.7373072 0,-0.4035787 0.32985,-0.7334268 0.737307,-0.7334268 0.263877,0 0.508347,0.1397005 0.636407,0.3608927 l 0.403577,-0.2289535 c -0.20567,-0.3608925 -0.597607,-0.597607 -1.039984,-0.597607 -0.663577,0 -1.202974,0.535518 -1.202974,1.1990946 0,0.6635766 0.539397,1.202975 1.202974,1.202975 z m 1.637591,-0.034925 h 0.465657 V 0.90593127 h -0.465657 z m 1.602661,0 h 0.601487 L 24.339909,2.8268108 c -0.0272,-0.031045 -0.0388,-0.054328 -0.0388,-0.073731 0,-0.023283 0.0155,-0.046567 0.0388,-0.073731 l 0.748934,-0.9973052 h -0.566557 l -0.659684,0.8808882 c -0.0504,0.06597 -0.0776,0.1358199 -0.0776,0.2017895 0,0.073731 0.031,0.1435809 0.097,0.2173116 z m 1.082674,0 h 0.601477 c 0.752824,0 1.241781,-0.4889514 1.241781,-1.2417809 V 1.2939877 h -0.465667 v 1.4746145 c 0,0.4928317 -0.283277,0.7761131 -0.776114,0.7761131 H 25.86108 Z m 3.775769,-2.328339 h -1.102074 v 0.4656678 h 1.102074 c 0.170737,0 0.310437,0.1397005 0.310437,0.3104452 v 0.1241782 h -0.985654 c -0.395817,0 -0.714027,0.3182062 -0.714027,0.7140239 0,0.4074591 0.30657,0.7140239 0.714027,0.7140239 h 0.942964 c 0.28328,0 0.508357,-0.2250729 0.508357,-0.508354 v -1.043872 c 0,-0.426862 -0.349247,-0.776113 -0.776104,-0.776113 z m 0.209547,1.8626712 h -0.884764 c -0.15911,0 -0.26388,-0.1047752 -0.26388,-0.2638784 0,-0.1435809 0.11642,-0.2638785 0.26388,-0.2638785 h 0.985654 v 0.4268621 c 0,0.058209 -0.0427,0.1008948 -0.10089,0.1008948 z m 2.312798,0.5005928 c 0.442387,0 0.834314,-0.2405952 1.039984,-0.597607 L 32.795601,3.2148672 c -0.12805,0.2250729 -0.37253,0.3647731 -0.636407,0.3647731 -0.407457,0 -0.737307,-0.3298481 -0.737307,-0.7373072 0,-0.4035787 0.32985,-0.7334268 0.737307,-0.7334268 0.263877,0 0.508357,0.1397005 0.636407,0.3608927 l 0.403577,-0.2289535 c -0.20567,-0.3608925 -0.597597,-0.597607 -1.039984,-0.597607 -0.663567,0 -1.202974,0.535518 -1.202974,1.1990946 0,0.6635766 0.539407,1.202975 1.202974,1.202975 z m 1.637591,-0.034925 h 0.465667 V 0.90593127 h -0.465667 z m 1.602667,0 H 36.00094 L 34.960949,2.8268108 c -0.0272,-0.031045 -0.0388,-0.054328 -0.0388,-0.073731 0,-0.023283 0.0155,-0.046567 0.0388,-0.073731 l 0.748946,-0.9973052 h -0.566562 l -0.659694,0.8808882 c -0.0504,0.06597 -0.0776,0.1358199 -0.0776,0.2017895 0,0.073731 0.0311,0.1435809 0.097,0.2173116 z"
         id="text37485-9"
         aria-label="RackJack" /></g><path
       inkscape:connector-curvature="0"
       id="path40444-2-2-7"
       d="M -84.261904,0.00862277 H -135.06191 V 128.5081 h 50.800006 z M -84.447944,128.32069 H -134.8745 V 0.19465977 h 50.426556 z m 0,0"
       style="display:inline;fill:url(#linearGradient9);fill-opacity:1;fill-rule:nonzero;stroke:none;stroke-width:0.352778" /><rect
       style="fill:#858585;fill-opacity:0.243055;stroke-width:0.264717"
       id="rect37483-6-4"
       width="50.427631"
       height="0.18739025"
       x="-134.87398"
       y="0.19523452" /><rect
       style="fill:url(#linearGradient10);stroke-width:0.622709"
       id="rect37484-1-8"
       width="5.4712029"
       height="128.11063"
       x="-94.588867"
       y="0.17898385"
       ry="0" /><path
       style="font-size:4.23333px;font-family:Pinnacle;-inkscape-font-specification:Pinnacle;white-space:pre;inline-size:22.7942;fill:#dddddd;fill-opacity:0.800499;stroke:#ededed;stroke-width:0.065;stroke-opacity:0.951926"
       d="m -90.190044,122.65944 v -1.6891 c 0,-0.45296 -0.3683,-0.8255 -0.8255,-0.8255 -0.4572,0 -0.8255,0.3683 -0.8255,0.8255 v 0.92287 c 0,0.27093 -0.2159,0.48683 -0.48684,0.48683 -0.27093,0 -0.48683,-0.2159 -0.48683,-0.48683 v -1.57903 h -0.33867 v 1.57903 c 0,0.4572 0.37254,0.8255 0.8255,0.8255 0.4572,0 0.8255,-0.3683 0.8255,-0.8255 v -0.92287 c 0,-0.27093 0.2159,-0.48683 0.48684,-0.48683 0.27093,0 0.48683,0.2159 0.48683,0.48683 v 1.6891 z m -2.20134,-4.68206 h -0.33866 v 1.22766 h -0.42334 v 0.33867 h 2.159 c 0.4445,0 0.80434,-0.36407 0.80434,-0.80433 v -0.762 h -0.33867 v 0.762 c 0,0.25823 -0.20743,0.46566 -0.46567,0.46566 h -1.397 z m 2.20134,-0.67734 v -0.33866 h -3.38667 v 0.33866 z m 0,-1.72296 v -0.46567 l -1.2446,1.25307 c -0.0423,0.0466 -0.0762,0.0677 -0.10584,0.0677 -0.0339,0 -0.0677,-0.0254 -0.11006,-0.0593 l -1.0795,-0.94404 v 0.43604 l 0.92286,0.8001 c 0.0889,0.0804 0.18204,0.11853 0.27094,0.11853 0.0974,0 0.1905,-0.0423 0.2794,-0.1397 z m -2.62467,-3.56023 h -0.33867 v 2.16323 c 0,0.22013 0.11854,0.33867 0.33867,0.33867 h 2.286 c 0.22013,0 0.33867,-0.11854 0.33867,-0.33867 v -2.16323 h -0.33867 v 2.16323 h -0.97367 v -1.49436 h -0.33866 v 1.49436 h -0.97367 z m 2.66277,-1.80763 c 0,-0.6223 -0.508,-1.1303 -1.13454,-1.1303 h -1.44356 v 0.33867 h 1.44356 c 0.44027,0 0.79587,0.3556 0.79587,0.79163 0,0.43603 -0.3556,0.79163 -0.79587,0.79163 h -1.44356 v 0.33867 h 1.44356 c 0.62654,0 1.13453,-0.508 1.13454,-1.1303 z m -0.0381,-1.80763 v -0.33867 h -1.75684 c -0.0804,0 -0.1143,-0.0127 -0.14816,-0.0423 -0.22014,-0.18627 -0.3429,-0.45297 -0.3429,-0.7366 0,-0.18203 0.0508,-0.35137 0.1397,-0.4953 l -0.29634,-0.1651 c -0.1143,0.19473 -0.18203,0.4191 -0.18203,0.6604 0,0.40217 0.18627,0.76623 0.47413,1.00753 0.1016,0.0847 0.20744,0.11007 0.3429,0.11007 z m 0.0381,-3.42053 c 0,-0.72814 -0.58844,-1.31657 -1.31234,-1.31657 -0.7239,0 -1.31233,0.59267 -1.31233,1.31657 0,0.7239 0.58843,1.31233 1.31233,1.31233 0.7239,0 1.31234,-0.58843 1.31234,-1.31233 z m -0.33867,0 c 0,0.53763 -0.43603,0.97366 -0.97367,0.97366 -0.53763,0 -0.97366,-0.43603 -0.97366,-0.97366 0,-0.53764 0.43603,-0.9779 0.97366,-0.9779 0.53764,0 0.97367,0.43603 0.97367,0.9779 z"
       id="text1-2-9"
       aria-label="StkEuro" /></g></svg>
